<svg width="73" height="73" viewBox="0 0 73 73" fill="none" xmlns="http://www.w3.org/2000/svg">
<rect x="0.25" width="72.2143" height="72.3156" rx="16" fill="#6D70C6"/>
<path d="M36.248 8.5C24.7542 8.5 15.4146 17.3057 15.4146 28.1425C15.4146 28.4833 15.4404 28.8634 15.4696 29.2493C13.6539 29.6726 12.2896 31.2166 12.2896 33.0531C12.2896 35.2109 14.1678 36.9817 16.4563 36.9817C16.6355 36.9817 16.8072 36.9515 16.9812 36.9299C17.3135 38.1163 17.678 39.2999 18.0676 40.444L14.4442 40.1467C12.7421 40.0072 11.2898 41.3972 11.4596 42.9991L12.7433 55.1069C11.8527 55.6284 11.25 56.5525 11.25 57.6044V59.5686C11.25 61.1842 12.6615 62.515 14.375 62.515C15.2594 62.515 16.0763 62.2483 16.7533 61.7995L35.1168 63.4492C35.8699 63.5169 36.6281 63.5169 37.3812 63.4492L55.7446 61.7995C56.4217 62.2483 57.2406 62.515 58.125 62.515C59.8385 62.515 61.25 61.1842 61.25 59.5686V57.6044C61.25 56.5525 60.6453 55.6284 59.7546 55.1069L61.0384 42.9991C61.2082 41.3963 59.7548 40.0072 58.0538 40.1467L54.4303 40.444C54.8189 39.3018 55.1835 38.1219 55.5147 36.9395C55.6887 36.9601 55.8625 36.9817 56.0417 36.9817C58.3302 36.9817 60.2083 35.2109 60.2083 33.0532C60.2083 31.2176 58.845 29.6726 57.0304 29.2493C57.0586 28.8634 57.0833 28.4833 57.0833 28.1425C57.0833 17.3057 47.7437 8.5 36.25 8.5L36.248 8.5ZM36.248 10.4643C46.6157 10.4643 54.998 18.3674 54.998 28.1425C54.998 30.8159 53.7086 36.2655 52.1659 40.6301L49.9443 40.8123C50.5578 37.8414 51.295 34.2853 51.1283 30.6976C50.9367 26.5943 49.4604 22.4171 45.1937 19.4914C44.5051 19.0199 43.5407 19.485 43.5396 20.2874C43.5396 21.9237 43.5396 23.5599 43.5396 25.1961C43.5396 25.7572 43.0931 26.1783 42.498 26.1783H29.998C29.4029 26.1783 28.9563 25.7572 28.9563 25.1961C28.9563 23.5599 28.9563 21.9237 28.9563 20.2874C28.9563 19.7345 28.4726 19.2906 27.8861 19.3053C27.6757 19.3112 27.4731 19.3745 27.3022 19.4914C23.0043 22.4387 21.5385 26.654 21.3635 30.7858C21.2125 34.3441 21.9413 37.8659 22.5496 40.8123L20.332 40.6301C18.7893 36.2645 17.498 30.8168 17.498 28.1425C17.498 18.3674 25.8803 10.4643 36.248 10.4643ZM45.623 22.5432C47.9771 24.8758 48.9033 27.7079 49.047 30.7839C49.2085 34.2508 48.4169 37.8912 47.7856 40.9888L37.192 41.8597C36.5638 41.9107 35.9321 41.9107 35.304 41.8597L24.7103 40.9888C24.0842 37.9138 23.297 34.3107 23.4428 30.8645C23.5751 27.7609 24.497 24.8983 26.8709 22.5452C26.8702 23.428 26.871 24.3168 26.873 25.1961C26.873 26.8114 28.2847 28.1425 29.998 28.1425H42.498C44.2112 28.1425 45.623 26.8114 45.623 25.1961C45.6216 24.3109 45.6218 23.4288 45.623 22.5432ZM56.8005 31.227C57.5783 31.5105 58.125 32.2124 58.125 33.0531C58.125 34.1492 57.2042 35.0174 56.0417 35.0174C56.2936 33.7589 56.6182 32.3748 56.8005 31.227ZM15.6974 31.229C15.9338 32.565 16.2137 33.9317 16.4583 35.0174C15.2958 35.0174 14.375 34.1492 14.375 33.0532C14.375 32.2125 14.9197 31.5124 15.6974 31.229ZM29.9776 34.0353L29.7457 34.064C29.1874 34.1957 28.8472 34.7288 28.9868 35.2553C28.9868 35.2553 29.3126 36.4711 30.3866 37.6281C31.4595 38.785 33.3657 39.928 36.248 39.928C39.1303 39.928 41.0365 38.785 42.1094 37.6281L43.5091 35.2553C43.6487 34.7288 43.3096 34.1957 42.7502 34.064C42.1919 33.9324 41.6264 34.2521 41.4868 34.7795C41.4868 34.7795 41.2918 35.5279 40.5428 36.3352C39.7938 37.1425 38.574 37.9638 36.248 37.9638C33.9219 37.9638 32.7031 37.1425 31.9531 36.3352L31.0091 34.7795C30.8914 34.3346 30.463 34.0264 29.9776 34.0353ZM14.2651 42.1052C21.2433 42.6739 28.2344 43.2564 35.2083 43.8182V61.483L18.2609 59.9619C18.4328 59.5327 18.5417 59.0716 18.5417 58.5884C18.5417 56.5662 16.8847 54.9035 14.7941 54.7002L13.5327 42.8034C13.4879 42.385 13.8214 42.0689 14.2651 42.1052ZM58.2308 42.1052C58.6745 42.0689 59.008 42.385 58.9632 42.8034L57.7018 54.7002C55.6112 54.9035 53.9563 56.5662 53.9563 58.5884C53.9563 59.0726 54.0621 59.5327 54.235 59.9619L37.2896 61.483V43.8182C44.2625 43.2525 51.2516 42.6768 58.2308 42.1052ZM24.7896 47.785C24.2146 47.785 23.748 48.225 23.748 48.7672V50.7314H21.6646C21.0896 50.7314 20.623 51.1714 20.623 51.7135C20.623 52.2557 21.0896 52.6957 21.6646 52.6957H23.748V54.6599C23.748 55.202 24.2146 55.642 24.7896 55.642C25.3646 55.642 25.8313 55.202 25.8313 54.6599V52.6957H27.9146C28.4896 52.6957 28.9563 52.2557 28.9563 51.7135C28.9563 51.1714 28.4896 50.7314 27.9146 50.7314H25.8313V48.7672C25.8313 48.225 25.3646 47.785 24.7896 47.785ZM44.5813 48.7672C44.0063 48.7672 43.5396 49.2072 43.5396 49.7493C43.5396 50.2914 44.0063 50.7314 44.5813 50.7314H50.8313C51.4063 50.7314 51.873 50.2914 51.873 49.7493C51.873 49.2072 51.4063 48.7672 50.8313 48.7672H44.5813ZM44.5813 52.6957C44.0063 52.6957 43.5396 53.1357 43.5396 53.6778C43.5396 54.2199 44.0063 54.6599 44.5813 54.6599H50.8313C51.4063 54.6599 51.873 54.2199 51.873 53.6778C51.873 53.1357 51.4063 52.6957 50.8313 52.6957H44.5813ZM14.373 56.6242C15.5355 56.6242 16.4563 57.4924 16.4563 58.5884C16.4563 59.6845 15.5355 60.5527 14.373 60.5527C13.7855 60.5527 13.3313 60.1245 13.3313 59.5705V57.6063C13.3313 57.0524 13.7855 56.6242 14.373 56.6242ZM58.123 56.6242C58.7105 56.6242 59.1646 57.0524 59.1646 57.6063V59.5705C59.1646 60.1245 58.7105 60.5527 58.123 60.5527C56.9605 60.5527 56.0396 59.6845 56.0396 58.5884C56.0396 57.4924 56.9605 56.6242 58.123 56.6242Z" fill="white"/>
</svg>
