<svg width="72" height="72" viewBox="0 0 72 72" fill="none" xmlns="http://www.w3.org/2000/svg">
<rect width="72" height="72" rx="16" fill="#FE4572"/>
<path d="M18.6697 25.2149H55.2306C56.2109 25.2149 57.0181 24.5805 57.3066 23.6002C57.5371 22.6199 57.1336 21.6972 56.2688 21.2358L37.9883 11.2595C37.354 10.9135 36.6042 10.9135 35.9698 11.2595L17.6317 21.2358C16.7668 21.6971 16.363 22.6774 16.5939 23.6002C16.8823 24.5805 17.6896 25.2149 18.6699 25.2149H18.6697ZM18.4388 22.6774L36.7192 12.7011C36.7767 12.6436 36.8347 12.6436 36.9497 12.6436C37.0072 12.6436 37.1227 12.6436 37.1802 12.7011L55.4607 22.6774C55.7491 22.8504 55.6911 23.0813 55.6911 23.1963C55.6911 23.3118 55.5757 23.5423 55.2298 23.5423L18.6699 23.5427C18.3815 23.5427 18.266 23.3122 18.2085 23.1967C18.2085 23.0813 18.2085 22.8504 18.439 22.6774L18.4388 22.6774Z" fill="white"/>
<path d="M36.8919 22.6203C38.7949 22.6203 40.3521 21.0632 40.3521 19.1601C40.3521 17.2569 38.795 15.6998 36.8919 15.6998C34.9889 15.6998 33.4316 17.2569 33.4316 19.1601C33.4892 21.0631 34.9888 22.6203 36.8919 22.6203ZM36.8919 17.3725C37.8722 17.3725 38.6794 18.1798 38.6794 19.1601C38.6794 20.1403 37.8721 20.9476 36.8919 20.9476C35.9116 20.9476 35.1043 20.1403 35.1043 19.1601C35.1618 18.1798 35.9116 17.3725 36.8919 17.3725Z" fill="white"/>
<path d="M61.1127 53.4718H58.3448V50.5885C58.3448 49.6082 57.5374 48.8009 56.5572 48.8009H53.7893L53.7889 29.4248C53.7889 28.1561 52.7511 27.0603 51.4244 27.0603H49.8673C48.5986 27.0603 47.5028 28.0981 47.5028 29.4248V48.7432H44.6195L44.6199 29.4248C44.6199 28.1561 43.5821 27.0603 42.2554 27.0603H40.6983C39.4297 27.0603 38.3339 28.0981 38.3339 29.4248V48.7432H35.4505L35.4509 29.4248C35.4509 28.1561 34.4131 27.0603 33.0865 27.0603H31.5294C30.2607 27.0603 29.1649 28.0981 29.1649 29.4248V48.7432H26.2816V29.4248C26.2816 28.1561 25.2438 27.0603 23.9171 27.0603H22.36C21.0913 27.0603 19.9955 28.0981 19.9955 29.4248V48.7432H17.3435C16.3632 48.7432 15.5559 49.5505 15.5559 50.5308V53.4141H12.7876C11.8073 53.4141 11 54.2215 11 55.2017V58.777C11 59.5843 11.6344 60.1611 12.3841 60.1611H61.4588C62.2661 60.1611 62.8429 59.5267 62.8429 58.777V55.2017C62.9004 54.2214 62.0931 53.4716 61.1128 53.4716L61.1127 53.4718ZM17.2281 50.5885C17.2281 50.5309 17.2856 50.473 17.3435 50.473H21.784L21.7836 29.4245C21.7836 29.0786 22.072 28.7327 22.4754 28.7327H24.0326C24.3785 28.7327 24.7244 29.0211 24.7244 29.4245V50.4153H30.9525L30.9529 29.4245C30.9529 29.0786 31.2413 28.7327 31.6448 28.7327H33.2019C33.5478 28.7327 33.8938 29.0211 33.8938 29.4245V50.4153H40.1218V29.4245C40.1218 29.0786 40.4102 28.7327 40.8137 28.7327H42.3708C42.7167 28.7327 43.0627 29.0211 43.0627 29.4245V50.4153H49.2907V29.4245C49.2907 29.0786 49.5791 28.7327 49.9826 28.7327H51.5397C51.8857 28.7327 52.2316 29.0211 52.2316 29.4245V50.4153H56.5566C56.6141 50.4153 56.6721 50.4729 56.6721 50.5308V53.4141H17.2278L17.2281 50.5885ZM61.228 58.5466H12.6724V55.2594C12.6724 55.2019 12.7299 55.1439 12.7878 55.1439H61.1128C61.1703 55.1439 61.2282 55.2015 61.2282 55.2594L61.228 58.5466Z" fill="white"/>
</svg>
